<svg xmlns="http://www.w3.org/2000/svg" viewBox="0 0 1200 560" role="img" aria-label="Green garden road near a school">
  <defs><linearGradient id="sky" x2="0" y2="1"><stop stop-color="#20333a"/><stop offset="1" stop-color="#7d9a7d"/></linearGradient></defs>
  <rect width="1200" height="560" fill="url(#sky)"/><path d="M0 350 200 280 390 330 580 250 770 320 1000 260 1200 320V560H0Z" fill="#17271f"/><path d="M0 440h1200v120H0z" fill="#101a17"/><path d="M520 560 610 370 700 560" fill="#485147"/><path d="M610 390 700 560" stroke="#c49a66" stroke-width="4"/><g fill="#20392a" stroke="#7d9a7d" stroke-width="4"><path d="M100 430 155 210l55 220Z"/><path d="M190 430 238 260l48 170Z"/><path d="M920 420 980 175l60 245Z"/><path d="M1010 420 1050 245l40 175Z"/></g><g fill="#2e3c40" stroke="#c49a66" stroke-width="4"><path d="M370 390V235h275v155Z"/><path d="M350 235h315l-42-38H392Z"/><rect x="410" y="275" width="62" height="52"/><rect x="530" y="275" width="62" height="52"/></g><path d="M760 400v-120m-28 28h56" stroke="#c49a66" stroke-width="6"/><circle cx="760" cy="252" r="26" fill="#7d9a7d"/></svg>
